<svg id="craft-lab-logo" viewBox="0 0 8 8" width="8" height="8" xmlns="http://www.w3.org/2000/svg" class="h-auto w-8">
  <rect x="0" y="0" width="1" height="1" fill="#5948F6"></rect>
  <rect x="1" y="0" width="1" height="1" fill="#5948F6"></rect>
  <rect x="2" y="0" width="1" height="1" fill="#3479F6"></rect>
  <rect x="3" y="0" width="1" height="1" fill="#5948F6"></rect>
  <rect x="4" y="0" width="1" height="1" fill="#3479F6"></rect>
  <rect x="5" y="0" width="1" height="1" fill="#5948F6"></rect>

  <rect x="0" y="1" width="1" height="1" fill="#34BF96"></rect>
  <rect x="1" y="1" width="1" height="1" fill="#3479F6"></rect>
  <rect x="2" y="1" width="1" height="1" fill="#5948F6"></rect>
  <rect x="3" y="1" width="1" height="1" fill="#5948F6"></rect>
  <rect x="4" y="1" width="1" height="1" fill="#5948F6"></rect>
  <rect x="5" y="1" width="1" height="1" fill="#3479F6"></rect>
  <rect x="6" y="1" width="1" height="1" fill="#3479F6"></rect>

  <rect x="0" y="2" width="1" height="1" fill="#3479F6"></rect>
  <rect x="1" y="2" width="1" height="1" fill="#34BF96"></rect>
  <rect x="2" y="2" width="1" height="1" fill="#3479F6"></rect>
  <rect x="3" y="2" width="1" height="1" fill="#34BF96"></rect>
  <rect x="4" y="2" width="1" height="1" fill="#3479F6"></rect>
  <rect x="5" y="2" width="1" height="1" fill="#5948F6"></rect>
  <rect x="6" y="2" width="1" height="1" fill="#5948F6"></rect>
  <rect x="7" y="2" width="1" height="1" fill="#34BF96"></rect>

  <rect x="0" y="3" width="1" height="1" fill="#97DC42"></rect>
  <rect x="1" y="3" width="1" height="1" fill="#34BF96"></rect>
  <rect x="2" y="3" width="1" height="1" fill="#34BF96"></rect>
  <rect x="3" y="3" width="1" height="1" fill="#EFBD2D"></rect>
  <rect x="4" y="3" width="1" height="1" fill="#97DC42"></rect>
  <rect x="5" y="3" width="1" height="1" fill="#34BF96"></rect>
  <rect x="6" y="3" width="1" height="1" fill="#EFBD2D"></rect>
  <rect x="7" y="3" width="1" height="1" fill="#34BF96"></rect>

  <rect x="0" y="4" width="1" height="1" fill="#F27D47"></rect>
  <rect x="1" y="4" width="1" height="1" fill="#34BF96"></rect>
  <rect x="2" y="4" width="1" height="1" fill="#34BF96"></rect>
  <rect x="3" y="4" width="1" height="1" fill="#EFBD2D"></rect>
  <rect x="4" y="4" width="1" height="1" fill="#34BF96"></rect>
  <rect x="5" y="4" width="1" height="1" fill="#EFBD2D"></rect>
  <rect x="6" y="4" width="1" height="1" fill="#34BF96"></rect>
  <rect x="7" y="4" width="1" height="1" fill="#F27D47"></rect>

  <rect x="0" y="5" width="1" height="1" fill="#EFBD2D"></rect>
  <rect x="1" y="5" width="1" height="1" fill="#F27D47"></rect>
  <rect x="2" y="5" width="1" height="1" fill="#F460CF"></rect>
  <rect x="3" y="5" width="1" height="1" fill="#EFBD2D"></rect>
  <rect x="4" y="5" width="1" height="1" fill="#EFBD2D"></rect>
  <rect x="5" y="5" width="1" height="1" fill="#97DC42"></rect>
  <rect x="6" y="5" width="1" height="1" fill="#F460CF"></rect>
  <rect x="7" y="5" width="1" height="1" fill="#EFBD2D"></rect>

  <rect x="0" y="6" width="1" height="1" fill="#F27D47"></rect>
  <rect x="1" y="6" width="1" height="1" fill="#F460CF"></rect>
  <rect x="2" y="6" width="1" height="1" fill="#F27D47"></rect>
  <rect x="3" y="6" width="1" height="1" fill="#EFBD2D"></rect>
  <rect x="4" y="6" width="1" height="1" fill="#F460CF"></rect>
  <rect x="5" y="6" width="1" height="1" fill="#EFBD2D"></rect>
  <rect x="6" y="6" width="1" height="1" fill="#F460CF"></rect>
  <rect x="7" y="6" width="1" height="1" fill="#F460CF"></rect>

  <rect x="0" y="7" width="1" height="1" fill="#F460CF"></rect>
  <rect x="1" y="7" width="1" height="1" fill="#F27D47"></rect>
  <rect x="2" y="7" width="1" height="1" fill="#F27D47"></rect>
  <rect x="3" y="7" width="1" height="1" fill="#F27D47"></rect>
  <rect x="4" y="7" width="1" height="1" fill="#F460CF"></rect>
  <rect x="5" y="7" width="1" height="1" fill="#F27D47"></rect>
  <rect x="6" y="7" width="1" height="1" fill="#F27D47"></rect>
  <rect x="7" y="7" width="1" height="1" fill="#F27D47"></rect>
</svg>