<svg id="craft-lab-logo" viewBox="0 0 48 48" width="48" height="48" xmlns="http://www.w3.org/2000/svg"
  class="h-auto w-8">
  <rect x="0" y="0" width="6" height="6" fill="#3479F6"></rect>
  <rect x="6" y="0" width="6" height="6" fill="#34BF96"></rect>
  <rect x="12" y="0" width="6" height="6" fill="#5948F6"></rect>
  <rect x="18" y="0" width="6" height="6" fill="#EFBD2D"></rect>
  <rect x="24" y="0" width="6" height="6" fill="#5948F6"></rect>
  <rect x="30" y="0" width="6" height="6" fill="#5948F6"></rect>
  <rect x="36" y="0" width="6" height="6" fill="#EFBD2D"></rect>
  <rect x="42" y="0" width="6" height="6" fill="#5948F6"></rect>
  <rect x="0" y="6" width="6" height="6" fill="#97DC42"></rect>
  <rect x="6" y="6" width="6" height="6" fill="#F460CF"></rect>
  <rect x="12" y="6" width="6" height="6" fill="#EFBD2D"></rect>
  <rect x="18" y="6" width="6" height="6" fill="#F460CF"></rect>
  <rect x="24" y="6" width="6" height="6" fill="#F460CF"></rect>
  <rect x="30" y="6" width="6" height="6" fill="#34BF96"></rect>
  <rect x="36" y="6" width="6" height="6" fill="#5948F6"></rect>
  <rect x="42" y="6" width="6" height="6" fill="#EFBD2D"></rect>
  <rect x="0" y="12" width="6" height="6" fill="#3479F6"></rect>
  <rect x="6" y="12" width="6" height="6" fill="#34BF96"></rect>
  <rect x="12" y="12" width="6" height="6" fill="#EFBD2D"></rect>
  <rect x="18" y="12" width="6" height="6" fill="#EFBD2D"></rect>
  <rect x="24" y="12" width="6" height="6" fill="#F27D47"></rect>
  <rect x="30" y="12" width="6" height="6" fill="#F27D47"></rect>
  <rect x="36" y="12" width="6" height="6" fill="#5948F6"></rect>
  <rect x="42" y="12" width="6" height="6" fill="#3479F6"></rect>
  <rect x="0" y="18" width="6" height="6" fill="#5948F6"></rect>
  <rect x="6" y="18" width="6" height="6" fill="#EFBD2D"></rect>
  <rect x="12" y="18" width="6" height="6" fill="#F27D47"></rect>
  <rect x="18" y="18" width="6" height="6" fill="#F27D47"></rect>
  <rect x="24" y="18" width="6" height="6" fill="#EFBD2D"></rect>
  <rect x="30" y="18" width="6" height="6" fill="#97DC42"></rect>
  <rect x="36" y="18" width="6" height="6" fill="#EFBD2D"></rect>
  <rect x="42" y="18" width="6" height="6" fill="#34BF96"></rect>
  <rect x="0" y="24" width="6" height="6" fill="#3479F6"></rect>
  <rect x="6" y="24" width="6" height="6" fill="#5948F6"></rect>
  <rect x="12" y="24" width="6" height="6" fill="#5948F6"></rect>
  <rect x="18" y="24" width="6" height="6" fill="#F27D47"></rect>
  <rect x="24" y="24" width="6" height="6" fill="#F460CF"></rect>
  <rect x="30" y="24" width="6" height="6" fill="#5948F6"></rect>
  <rect x="36" y="24" width="6" height="6" fill="#5948F6"></rect>
  <rect x="42" y="24" width="6" height="6" fill="#97DC42"></rect>
  <rect x="0" y="30" width="6" height="6" fill="#F460CF"></rect>
  <rect x="6" y="30" width="6" height="6" fill="#EFBD2D"></rect>
  <rect x="12" y="30" width="6" height="6" fill="#EFBD2D"></rect>
  <rect x="18" y="30" width="6" height="6" fill="#EFBD2D"></rect>
  <rect x="24" y="30" width="6" height="6" fill="#F460CF"></rect>
  <rect x="30" y="30" width="6" height="6" fill="#F27D47"></rect>
  <rect x="36" y="30" width="6" height="6" fill="#34BF96"></rect>
  <rect x="42" y="30" width="6" height="6" fill="#F460CF"></rect>
  <rect x="0" y="36" width="6" height="6" fill="#3479F6"></rect>
  <rect x="6" y="36" width="6" height="6" fill="#F460CF"></rect>
  <rect x="12" y="36" width="6" height="6" fill="#EFBD2D"></rect>
  <rect x="18" y="36" width="6" height="6" fill="#5948F6"></rect>
  <rect x="24" y="36" width="6" height="6" fill="#EFBD2D"></rect>
  <rect x="30" y="36" width="6" height="6" fill="#3479F6"></rect>
  <rect x="36" y="36" width="6" height="6" fill="#F27D47"></rect>
  <rect x="42" y="36" width="6" height="6" fill="#EFBD2D"></rect>
  <rect x="0" y="42" width="6" height="6" fill="#F27D47"></rect>
  <rect x="6" y="42" width="6" height="6" fill="#F27D47"></rect>
  <rect x="12" y="42" width="6" height="6" fill="#3479F6"></rect>
  <rect x="18" y="42" width="6" height="6" fill="#5948F6"></rect>
  <rect x="24" y="42" width="6" height="6" fill="#F27D47"></rect>
  <rect x="30" y="42" width="6" height="6" fill="#3479F6"></rect>
  <rect x="36" y="42" width="6" height="6" fill="#3479F6"></rect>
  <rect x="42" y="42" width="6" height="6" fill="#97DC42"></rect>
</svg>